<svg width="100" height="100" viewBox="0 0 100 100" xmlns="http://www.w3.org/2000/svg">
    <style>
    </style>
    <defs>
        <clipPath id="bottom-chop">
            <path d="
                M 5 68
                l 8 0
                q 13 -9 26.5 0
                l 8 0
                l 0 -30
                l -42.5 0" />
        </clipPath>
        <g stroke="black" fill="none" stroke-width="1" id="eyes0">
        <line x1="5" x2="5" y1="0" y2="100"  />
        <line x1="95" x2="95" y1="0" y2="100"  />
        <line x1="47.5" x2="47.5" y1="0" y2="100" />
        <line x1="52.5" x2="52.5" y1="0" y2="100" />
        <line x1="0" x2="100" y1="45" y2="45" />
        <g id="topeyes">
            <g id="top2">
                <g id="topinner">
                    <path d="
                        M 5 20
                        l 8 -7
                        q 13 -9 26.5 0
                        l 8 7" id="curve"/>
                    <use href="#curve" transform="translate(47.5 0)" />
                </g>
                <use href="#topinner" transform="translate(0 -5)" />
            </g>
            <use href="#top2" transform="scale(1 -1) translate(0 -40)" />
            <circle r="5" cx="26" cy="20" fill="steelblue" id="pupil" />
            <use href="#pupil" transform="translate(47.5 0)" />
        </g>
        <use href="#topeyes" transform="translate(0 60)" />
        <g id="top-boxes">
            <rect width="8.75" height="8.75" x="5" y="45" id="box" />
            <use href="#box" transform="translate(11.25 0)" />
            <use href="#box" transform="translate(22.5 0)" />
            <use href="#box" transform="translate(33.75 0)" />
        </g>
        <g id="bottom-boxes" clip-path="url(#bottom-chop)" >
            <rect width="8.75" height="15" x="5" y="56.25" id="box2" />
            <use href="#box2" transform="translate(11.25 0)" />
            <use href="#box2" transform="translate(22.5 0)" />
            <use href="#box2" transform="translate(33.75 0)" />
        </g>
        <g transform="translate(47.5)">
            <use href="#top-boxes" />
            <use href="#bottom-boxes" />
        </g>
    </g>
    </defs>
    <use href="#eyes0" transform="scale(1 -1) translate(0 -100)" />
</svg>