<svg viewBox="0 0 110 110" xmlns="http://www.w3.org/2000/svg" class="die">
        <!-- tetrahedron coords -->
        <!-- (0, h, 0) -->
        <!-- (b, h, 0) -->
        <!-- (b/2, 0, 0) -->
        <!-- (b/2, 2h/3, h) -->
        <!-- b = 100, h = sin(pi/3)*b = 86.60254 -->
    <style>
        .die .pip {
            fill: white;
            stroke: none;
        }
        .die .sides {
            stroke: darkgray;
            fill: black;
            stroke-width: 0.5;
        }
    </style>
    <defs>
        <polygon id="leftFace" points="0,86.60254 50,57.73503 50,0" />
        <polygon id="rightFace" points="100,86.60254 50,57.73503 50,0" />
        <polygon id="bottomFace" points="100,86.60254 50,57.73503 0,86.60254" />
        <polygon id="bgTriangle" points="100,86.60254 50,0 0,86.60254" />
        <line id="leftSide" x1="0" y1="86.60254" x2="50" y2="0" />
        <line id="rightSide" x1="100" y1="86.60254" x2="50" y2="0" />
        <line id="baseSide" x1="0" y1="86.60254" x2="100" y2="86.60254" />
        <line id="middleTop" x1="50" y1="0" x2="50" y2="57.73503" />
        <line id="leftTop" x1="0" y1="86.60254" x2="50" y2="57.73503"/>
        <line id="rightTop" x1="100" y1="86.60254" x2="50" y2="57.73503" />
        <g id="wireframe" class="sides">
            <use href="#leftSide" />
            <use href="#rightSide" />
            <use href="#baseSide" />
            <use href="#middleTop" />
            <use href="#leftTop" />
            <use href="#rightTop" />
        </g>
    </defs>
    <!-- <g class="face">
        <use href="#leftFace" />
        <use href="#rightFace" />
        <use href="#bottomFace" />
    </g>
    <g class="pip">
        <use href="#leftFace" transform="translate(40 0) scale(0.2)" />
        <use href="#rightFace" transform="translate(40 0) scale(0.2)" />
    </g> -->
    <use href="#bgTriangle" class="bg" />
    <g class="pip" transform="translate(0 69.282032) scale(0.2)">
        <use href="#leftFace" />
        <use href="#bottomFace" />
    </g>
    <g class="pip" transform="translate(80 69.282032) scale(0.2)">
        <use href="#rightFace" />
        <use href="#bottomFace" />
    </g>
    <use href="#wireframe" />
</svg>